<?xml version="1.0" encoding="UTF-8"?>
<svg xmlns="http://www.w3.org/2000/svg" width="24" height="16" viewBox="0 0 24 16" role="img" aria-label="United States">
  <rect width="24" height="16" fill="#ffffff" />
  <g fill="#b22234">
    <rect y="0" width="24" height="1.23" />
    <rect y="2.46" width="24" height="1.23" />
    <rect y="4.92" width="24" height="1.23" />
    <rect y="7.38" width="24" height="1.23" />
    <rect y="9.84" width="24" height="1.23" />
    <rect y="12.3" width="24" height="1.23" />
    <rect y="14.76" width="24" height="1.23" />
  </g>
  <rect width="10" height="8.6" fill="#3c3b6e" />
  <g fill="#ffffff">
    <circle cx="1.0" cy="1.2" r="0.35" />
    <circle cx="2.8" cy="1.2" r="0.35" />
    <circle cx="4.6" cy="1.2" r="0.35" />
    <circle cx="6.4" cy="1.2" r="0.35" />
    <circle cx="8.2" cy="1.2" r="0.35" />
    <circle cx="1.0" cy="3.0" r="0.35" />
    <circle cx="2.8" cy="3.0" r="0.35" />
    <circle cx="4.6" cy="3.0" r="0.35" />
    <circle cx="6.4" cy="3.0" r="0.35" />
    <circle cx="8.2" cy="3.0" r="0.35" />
    <circle cx="1.0" cy="4.8" r="0.35" />
    <circle cx="2.8" cy="4.8" r="0.35" />
    <circle cx="4.6" cy="4.8" r="0.35" />
    <circle cx="6.4" cy="4.8" r="0.35" />
    <circle cx="8.2" cy="4.8" r="0.35" />
    <circle cx="1.0" cy="6.6" r="0.35" />
    <circle cx="2.8" cy="6.6" r="0.35" />
    <circle cx="4.6" cy="6.6" r="0.35" />
    <circle cx="6.4" cy="6.6" r="0.35" />
    <circle cx="8.2" cy="6.6" r="0.35" />
  </g>
</svg>
